<?xml version="1.0" encoding="UTF-8" standalone="no"?>
<svg
   xmlns:dc="http://purl.org/dc/elements/1.1/"
   xmlns:cc="http://creativecommons.org/ns#"
   xmlns:rdf="http://www.w3.org/1999/02/22-rdf-syntax-ns#"
   xmlns:svg="http://www.w3.org/2000/svg"
   xmlns="http://www.w3.org/2000/svg"
   xmlns:sodipodi="http://sodipodi.sourceforge.net/DTD/sodipodi-0.dtd"
   xmlns:inkscape="http://www.inkscape.org/namespaces/inkscape"
   version="1.1"
   id="Capa_1"
   x="0px"
   y="0px"
   viewBox="0 0 31.586 31.586"
   style="enable-background:new 0 0 31.586 31.586;"
   xml:space="preserve"
   sodipodi:docname="terminal.svg"
   inkscape:version="1.0.1 (3bc2e813f5, 2020-09-07)"><metadata
   id="metadata71"><rdf:RDF><cc:Work
       rdf:about=""><dc:format>image/svg+xml</dc:format><dc:type
         rdf:resource="http://purl.org/dc/dcmitype/StillImage" /><dc:title></dc:title></cc:Work></rdf:RDF></metadata><defs
   id="defs69" /><sodipodi:namedview
   pagecolor="#ffffff"
   bordercolor="#666666"
   borderopacity="1"
   objecttolerance="10"
   gridtolerance="10"
   guidetolerance="10"
   inkscape:pageopacity="0"
   inkscape:pageshadow="2"
   inkscape:window-width="1920"
   inkscape:window-height="1137"
   id="namedview67"
   showgrid="false"
   inkscape:pagecheckerboard="true"
   inkscape:zoom="23.269803"
   inkscape:cx="15.793"
   inkscape:cy="15.793"
   inkscape:window-x="-8"
   inkscape:window-y="-8"
   inkscape:window-maximized="1"
   inkscape:current-layer="Capa_1" />
<g
   id="g34"
   style="fill:#ffffff">
	<path
   d="M29.331,2.256H2.259C1.01,2.256,0,3.265,0,4.511v22.565c0,1.244,1.01,2.255,2.259,2.255h27.072   c1.242,0,2.255-1.011,2.255-2.255V4.511C31.586,3.265,30.573,2.256,29.331,2.256z M10.788,3.95c0.623,0,1.126,0.502,1.126,1.128   c0,0.623-0.503,1.125-1.126,1.125S9.659,5.701,9.659,5.078C9.659,4.452,10.165,3.95,10.788,3.95z M7.334,3.95   c0.623,0,1.129,0.502,1.129,1.128c0,0.623-0.506,1.125-1.129,1.125c-0.625,0-1.131-0.503-1.131-1.125   C6.203,4.452,6.709,3.95,7.334,3.95z M3.947,3.95c0.623,0,1.129,0.502,1.129,1.128c0,0.623-0.506,1.125-1.129,1.125   c-0.621,0-1.126-0.503-1.126-1.125C2.821,4.452,3.326,3.95,3.947,3.95z M29.331,27.076H2.259V7.922h27.072   C29.331,7.922,29.331,27.076,29.331,27.076z M29.331,5.665H13.536V4.537h15.795C29.331,4.537,29.331,5.665,29.331,5.665z"
   id="path2"
   style="fill:#ffffff" />
	<g
   id="g4"
   style="fill:#ffffff">
	</g>
	<g
   id="g6"
   style="fill:#ffffff">
	</g>
	<g
   id="g8"
   style="fill:#ffffff">
	</g>
	<g
   id="g10"
   style="fill:#ffffff">
	</g>
	<g
   id="g12"
   style="fill:#ffffff">
	</g>
	<g
   id="g14"
   style="fill:#ffffff">
	</g>
	<g
   id="g16"
   style="fill:#ffffff">
	</g>
	<g
   id="g18"
   style="fill:#ffffff">
	</g>
	<g
   id="g20"
   style="fill:#ffffff">
	</g>
	<g
   id="g22"
   style="fill:#ffffff">
	</g>
	<g
   id="g24"
   style="fill:#ffffff">
	</g>
	<g
   id="g26"
   style="fill:#ffffff">
	</g>
	<g
   id="g28"
   style="fill:#ffffff">
	</g>
	<g
   id="g30"
   style="fill:#ffffff">
	</g>
	<g
   id="g32"
   style="fill:#ffffff">
	</g>
</g>
<g
   id="g36">
</g>
<g
   id="g38">
</g>
<g
   id="g40">
</g>
<g
   id="g42">
</g>
<g
   id="g44">
</g>
<g
   id="g46">
</g>
<g
   id="g48">
</g>
<g
   id="g50">
</g>
<g
   id="g52">
</g>
<g
   id="g54">
</g>
<g
   id="g56">
</g>
<g
   id="g58">
</g>
<g
   id="g60">
</g>
<g
   id="g62">
</g>
<g
   id="g64">
</g>
</svg>
