<?xml version="1.0" encoding="UTF-8" standalone="no"?>
<svg
   xmlns:dc="http://purl.org/dc/elements/1.1/"
   xmlns:cc="http://creativecommons.org/ns#"
   xmlns:rdf="http://www.w3.org/1999/02/22-rdf-syntax-ns#"
   xmlns:svg="http://www.w3.org/2000/svg"
   xmlns="http://www.w3.org/2000/svg"
   xmlns:sodipodi="http://sodipodi.sourceforge.net/DTD/sodipodi-0.dtd"
   xmlns:inkscape="http://www.inkscape.org/namespaces/inkscape"
   version="1.1"
   id="Capa_1"
   x="0px"
   y="0px"
   viewBox="0 0 191.146 191.146"
   style="enable-background:new 0 0 191.146 191.146;"
   xml:space="preserve"
   sodipodi:docname="grid.svg"
   inkscape:version="1.0.1 (3bc2e813f5, 2020-09-07)"
   inkscape:export-filename="C:\Users\Katrin\Downloads\grid.png"
   inkscape:export-xdpi="96"
   inkscape:export-ydpi="96"><metadata
   id="metadata276"><rdf:RDF><cc:Work
       rdf:about=""><dc:format>image/svg+xml</dc:format><dc:type
         rdf:resource="http://purl.org/dc/dcmitype/StillImage" /><dc:title></dc:title></cc:Work></rdf:RDF></metadata><defs
   id="defs274" /><sodipodi:namedview
   pagecolor="#ffffff"
   bordercolor="#666666"
   borderopacity="1"
   objecttolerance="10"
   gridtolerance="10"
   guidetolerance="10"
   inkscape:pageopacity="0"
   inkscape:pageshadow="2"
   inkscape:window-width="1920"
   inkscape:window-height="1137"
   id="namedview272"
   showgrid="false"
   inkscape:pagecheckerboard="true"
   inkscape:zoom="1.9226142"
   inkscape:cx="-54.3986"
   inkscape:cy="142.26307"
   inkscape:window-x="-8"
   inkscape:window-y="-8"
   inkscape:window-maximized="1"
   inkscape:current-layer="Capa_1" />
<g
   id="g197"
   style="fill:#ffffff">
	<g
   id="g195"
   style="fill:#ffffff">
		<path
   d="M126.293,0H3.413C1.527,0,0,1.527,0,3.413V51.2c0,1.886,1.527,3.413,3.413,3.413h122.88c1.886,0,3.413-1.527,3.413-3.413    V3.413C129.707,1.527,128.179,0,126.293,0z M122.88,47.787H6.827V6.827H122.88V47.787z"
   id="path193"
   style="fill:#ffffff" />
	</g>
</g>
<g
   id="g203"
   style="fill:#ffffff">
	<g
   id="g201"
   style="fill:#ffffff">
		<path
   d="M126.293,136.533H3.413c-1.886,0-3.413,1.527-3.413,3.413v47.787c0,1.886,1.527,3.413,3.413,3.413h122.88    c1.886,0,3.413-1.528,3.413-3.413v-47.787C129.707,138.061,128.179,136.533,126.293,136.533z M122.88,184.32H6.827v-40.96H122.88    V184.32z"
   id="path199"
   style="fill:#ffffff" />
	</g>
</g>
<g
   id="g209"
   style="fill:#ffffff">
	<g
   id="g207"
   style="fill:#ffffff">
		<path
   d="M126.293,47.787H3.413C1.527,47.787,0,49.314,0,51.2v44.373c0,1.886,1.527,3.413,3.413,3.413h122.88    c1.886,0,3.413-1.527,3.413-3.413V51.2C129.707,49.314,128.179,47.787,126.293,47.787z M122.88,92.16H6.827V54.613H122.88V92.16z"
   id="path205"
   style="fill:#ffffff" />
	</g>
</g>
<g
   id="g215"
   style="fill:#ffffff">
	<g
   id="g213"
   style="fill:#ffffff">
		<path
   d="M126.293,92.16H3.413C1.527,92.16,0,93.687,0,95.573v44.373c0,1.886,1.527,3.413,3.413,3.413h122.88    c1.886,0,3.413-1.527,3.413-3.413V95.573C129.707,93.687,128.179,92.16,126.293,92.16z M122.88,136.533H6.827V98.987H122.88    V136.533z"
   id="path211"
   style="fill:#ffffff" />
	</g>
</g>
<g
   id="g221"
   style="fill:#ffffff">
	<g
   id="g219"
   style="fill:#ffffff">
		<path
   d="M187.733,0h-61.44c-1.886,0-3.413,1.527-3.413,3.413V51.2c0,1.886,1.527,3.413,3.413,3.413h61.44    c1.886,0,3.413-1.527,3.413-3.413V3.413C191.147,1.527,189.619,0,187.733,0z M184.32,47.787h-54.613V6.827h54.613V47.787z"
   id="path217"
   style="fill:#ffffff" />
	</g>
</g>
<g
   id="g227"
   style="fill:#ffffff">
	<g
   id="g225"
   style="fill:#ffffff">
		<path
   d="M187.733,136.533h-61.44c-1.886,0-3.413,1.527-3.413,3.413v47.787c0,1.886,1.527,3.413,3.413,3.413h61.44    c1.886,0,3.413-1.528,3.413-3.413v-47.787C191.147,138.061,189.619,136.533,187.733,136.533z M184.32,184.32h-54.613v-40.96    h54.613V184.32z"
   id="path223"
   style="fill:#ffffff" />
	</g>
</g>
<g
   id="g233"
   style="fill:#ffffff">
	<g
   id="g231"
   style="fill:#ffffff">
		<path
   d="M187.733,47.787h-61.44c-1.886,0-3.413,1.527-3.413,3.413v44.373c0,1.886,1.527,3.413,3.413,3.413h61.44    c1.886,0,3.413-1.527,3.413-3.413V51.2C191.147,49.314,189.619,47.787,187.733,47.787z M184.32,92.16h-54.613V54.613h54.613V92.16    z"
   id="path229"
   style="fill:#ffffff" />
	</g>
</g>
<g
   id="g239"
   style="fill:#ffffff">
	<g
   id="g237"
   style="fill:#ffffff">
		<path
   d="M187.733,92.16h-61.44c-1.886,0-3.413,1.527-3.413,3.413v44.373c0,1.886,1.527,3.413,3.413,3.413h61.44    c1.886,0,3.413-1.527,3.413-3.413V95.573C191.147,93.687,189.619,92.16,187.733,92.16z M184.32,136.533h-54.613V98.987h54.613    V136.533z"
   id="path235"
   style="fill:#ffffff" />
	</g>
</g>
<g
   id="g241">
</g>
<g
   id="g243">
</g>
<g
   id="g245">
</g>
<g
   id="g247">
</g>
<g
   id="g249">
</g>
<g
   id="g251">
</g>
<g
   id="g253">
</g>
<g
   id="g255">
</g>
<g
   id="g257">
</g>
<g
   id="g259">
</g>
<g
   id="g261">
</g>
<g
   id="g263">
</g>
<g
   id="g265">
</g>
<g
   id="g267">
</g>
<g
   id="g269">
</g>
</svg>
