<?xml version="1.0" encoding="UTF-8" standalone="no"?>
<svg
   xmlns:dc="http://purl.org/dc/elements/1.1/"
   xmlns:cc="http://creativecommons.org/ns#"
   xmlns:rdf="http://www.w3.org/1999/02/22-rdf-syntax-ns#"
   xmlns:svg="http://www.w3.org/2000/svg"
   xmlns="http://www.w3.org/2000/svg"
   xmlns:sodipodi="http://sodipodi.sourceforge.net/DTD/sodipodi-0.dtd"
   xmlns:inkscape="http://www.inkscape.org/namespaces/inkscape"
   version="1.1"
   id="Capa_1"
   x="0px"
   y="0px"
   viewBox="0 0 477.873 477.873"
   style="enable-background:new 0 0 477.873 477.873;"
   xml:space="preserve"
   sodipodi:docname="edit.svg"
   inkscape:version="1.0.1 (3bc2e813f5, 2020-09-07)"
   inkscape:export-filename="C:\Users\Katrin\Downloads\edit.png"
   inkscape:export-xdpi="96"
   inkscape:export-ydpi="96"><metadata
   id="metadata106"><rdf:RDF><cc:Work
       rdf:about=""><dc:format>image/svg+xml</dc:format><dc:type
         rdf:resource="http://purl.org/dc/dcmitype/StillImage" /><dc:title></dc:title></cc:Work></rdf:RDF></metadata><defs
   id="defs104" /><sodipodi:namedview
   pagecolor="#ffffff"
   bordercolor="#666666"
   borderopacity="1"
   objecttolerance="10"
   gridtolerance="10"
   guidetolerance="10"
   inkscape:pageopacity="0"
   inkscape:pageshadow="2"
   inkscape:window-width="1920"
   inkscape:window-height="1137"
   id="namedview102"
   showgrid="false"
   inkscape:pagecheckerboard="true"
   inkscape:zoom="0.47345215"
   inkscape:cx="-351.99345"
   inkscape:cy="388.45936"
   inkscape:window-x="-8"
   inkscape:window-y="-8"
   inkscape:window-maximized="1"
   inkscape:current-layer="Capa_1" />
<g
   id="g63">
	<g
   id="g61">
		<path
   d="M392.533,238.937c-9.426,0-17.067,7.641-17.067,17.067V426.67c0,9.426-7.641,17.067-17.067,17.067H51.2    c-9.426,0-17.067-7.641-17.067-17.067V85.337c0-9.426,7.641-17.067,17.067-17.067H256c9.426,0,17.067-7.641,17.067-17.067    S265.426,34.137,256,34.137H51.2C22.923,34.137,0,57.06,0,85.337V426.67c0,28.277,22.923,51.2,51.2,51.2h307.2    c28.277,0,51.2-22.923,51.2-51.2V256.003C409.6,246.578,401.959,238.937,392.533,238.937z"
   id="path59"
   style="fill:#ffffff" />
	</g>
</g>
<g
   id="g69">
	<g
   id="g67">
		<path
   d="M458.742,19.142c-12.254-12.256-28.875-19.14-46.206-19.138c-17.341-0.05-33.979,6.846-46.199,19.149L141.534,243.937    c-1.865,1.879-3.272,4.163-4.113,6.673l-34.133,102.4c-2.979,8.943,1.856,18.607,10.799,21.585    c1.735,0.578,3.552,0.873,5.38,0.875c1.832-0.003,3.653-0.297,5.393-0.87l102.4-34.133c2.515-0.84,4.8-2.254,6.673-4.13    l224.802-224.802C484.25,86.023,484.253,44.657,458.742,19.142z"
   id="path65"
   style="fill:#ffffff" />
	</g>
</g>
<g
   id="g71">
</g>
<g
   id="g73">
</g>
<g
   id="g75">
</g>
<g
   id="g77">
</g>
<g
   id="g79">
</g>
<g
   id="g81">
</g>
<g
   id="g83">
</g>
<g
   id="g85">
</g>
<g
   id="g87">
</g>
<g
   id="g89">
</g>
<g
   id="g91">
</g>
<g
   id="g93">
</g>
<g
   id="g95">
</g>
<g
   id="g97">
</g>
<g
   id="g99">
</g>
</svg>
