<svg xmlns="http://www.w3.org/2000/svg" width="1181" height="1181" viewBox="0 0 1181 1181">
  <defs>
    <style>
      .cls-1 {
        fill: none;
        stroke: #fff;
        stroke-width: 80px;
        fill-rule: evenodd;
      }
    </style>
  </defs>
  <path id="rect1" class="cls-1" d="M104,393.254H386.834a50,50,0,0,1,50,50V736a50,50,0,0,1-50,50H104a50,50,0,0,1-50-50V443.254A50,50,0,0,1,104,393.254Zm0,0H386.834a50,50,0,0,1,50,50V736a50,50,0,0,1-50,50H104a50,50,0,0,1-50-50V443.254A50,50,0,0,1,104,393.254Z"/>
  <path id="rect2" class="cls-1" d="M794,394.254h282.83a50,50,0,0,1,50,50V737a50,50,0,0,1-50,50H794a50,50,0,0,1-50-50V444.254A50,50,0,0,1,794,394.254Zm0,0h282.83a50,50,0,0,1,50,50V737a50,50,0,0,1-50,50H794a50,50,0,0,1-50-50V444.254A50,50,0,0,1,794,394.254Z"/>
  <path id="line1" class="cls-1" d="M437,591v-1H744v1H437Z"/>
</svg>
