<?xml version="1.0" encoding="UTF-8" standalone="no"?>
<svg
   xmlns:dc="http://purl.org/dc/elements/1.1/"
   xmlns:cc="http://creativecommons.org/ns#"
   xmlns:rdf="http://www.w3.org/1999/02/22-rdf-syntax-ns#"
   xmlns:svg="http://www.w3.org/2000/svg"
   xmlns="http://www.w3.org/2000/svg"
   xmlns:sodipodi="http://sodipodi.sourceforge.net/DTD/sodipodi-0.dtd"
   xmlns:inkscape="http://www.inkscape.org/namespaces/inkscape"
   version="1.1"
   id="Capa_1"
   x="0px"
   y="0px"
   viewBox="0 0 386.617 386.617"
   style="enable-background:new 0 0 386.617 386.617;"
   xml:space="preserve"
   sodipodi:docname="stack.svg"
   inkscape:export-filename="C:\Users\Katrin\Downloads\stack.png"
   inkscape:export-xdpi="7.5684409"
   inkscape:export-ydpi="7.5684409"
   inkscape:version="1.0.1 (3bc2e813f5, 2020-09-07)"><metadata
   id="metadata476"><rdf:RDF><cc:Work
       rdf:about=""><dc:format>image/svg+xml</dc:format><dc:type
         rdf:resource="http://purl.org/dc/dcmitype/StillImage" /><dc:title /></cc:Work></rdf:RDF></metadata><defs
   id="defs474" /><sodipodi:namedview
   pagecolor="#ffffff"
   bordercolor="#666666"
   borderopacity="1"
   objecttolerance="10"
   gridtolerance="10"
   guidetolerance="10"
   inkscape:pageopacity="0"
   inkscape:pageshadow="2"
   inkscape:window-width="1920"
   inkscape:window-height="1137"
   id="namedview472"
   showgrid="false"
   inkscape:pagecheckerboard="true"
   inkscape:zoom="0.67214256"
   inkscape:cx="-38.86717"
   inkscape:cy="313.19135"
   inkscape:window-x="-8"
   inkscape:window-y="-8"
   inkscape:window-maximized="1"
   inkscape:current-layer="Capa_1"
   inkscape:document-rotation="0" />
<g
   id="g427"
   style="fill:#ffffff">
	<g
   id="g425"
   style="fill:#ffffff">
		<path
   d="M349.869,84.591L228.748,9.142c-19.564-12.187-51.306-12.192-70.879,0L36.748,84.591    c-19.564,12.187-19.573,31.96,0,44.152l121.121,75.449c19.564,12.187,51.306,12.192,70.879,0l121.121-75.449    C369.433,116.556,369.442,96.783,349.869,84.591z M211.584,168.669c-9.98,6.333-26.202,6.307-36.14,0l-97.578-61.923    l97.578-61.734c9.98-6.314,26.202-6.287,36.14,0l97.578,61.734L211.584,168.669z"
   id="path423"
   style="fill:#ffffff" />
	</g>
</g>
<g
   id="g433"
   style="fill:#ffffff">
	<g
   id="g431"
   style="fill:#ffffff">
		<path
   d="M349.869,172.542l-2.527-1.574l-127.273,80.305l-0.047-0.007l-8.438,5.354c-9.98,6.333-26.202,6.307-36.14,0    l-97.578-61.923l0.022-0.014l-38.131-24.017l-3.01,1.875c-19.564,12.187-19.573,31.96,0,44.152l121.121,75.449    c19.564,12.187,51.306,12.192,70.879,0l121.121-75.449C369.433,204.507,369.442,184.734,349.869,172.542z"
   id="path429"
   style="fill:#ffffff" />
	</g>
</g>
<g
   id="g439"
   style="fill:#ffffff">
	<g
   id="g437"
   style="fill:#ffffff">
		<path
   d="M349.869,257.875l-2.527-1.574l-127.273,80.305l-0.047-0.007l-8.438,5.354c-9.98,6.333-26.202,6.307-36.14,0    L77.867,280.03l0.022-0.014L39.758,256l-3.01,1.875c-19.564,12.187-19.573,31.96,0,44.152l121.121,75.449    c19.564,12.187,51.306,12.192,70.879,0l121.121-75.449C369.433,289.84,369.442,270.067,349.869,257.875z"
   id="path435"
   style="fill:#ffffff" />
	</g>
</g>
<g
   id="g441">
</g>
<g
   id="g443">
</g>
<g
   id="g445">
</g>
<g
   id="g447">
</g>
<g
   id="g449">
</g>
<g
   id="g451">
</g>
<g
   id="g453">
</g>
<g
   id="g455">
</g>
<g
   id="g457">
</g>
<g
   id="g459">
</g>
<g
   id="g461">
</g>
<g
   id="g463">
</g>
<g
   id="g465">
</g>
<g
   id="g467">
</g>
<g
   id="g469">
</g>
</svg>
