<svg xmlns="http://www.w3.org/2000/svg" width="1181" height="1181" viewBox="0 0 1181 1181">
  <defs>
    <style>
      .cls-1, .cls-2 {
        fill: none;
        stroke: #fff;
        stroke-width: 80px;
        fill-rule: evenodd;
      }

      .cls-2 {
        stroke-linecap: round;
        stroke-linejoin: round;
      }
    </style>
  </defs>
  <path id="rect1" class="cls-1" d="M104,711.254H386.834a50,50,0,0,1,50,50V1054a50,50,0,0,1-50,50H104a50,50,0,0,1-50-50V761.254A50,50,0,0,1,104,711.254Zm0,0H386.834a50,50,0,0,1,50,50V1054a50,50,0,0,1-50,50H104a50,50,0,0,1-50-50V761.254A50,50,0,0,1,104,711.254Z"/>
  <path id="rect2" class="cls-1" d="M794,711.254h282.83a50,50,0,0,1,50,50V1054a50,50,0,0,1-50,50H794a50,50,0,0,1-50-50V761.254A50,50,0,0,1,794,711.254Zm0,0h282.83a50,50,0,0,1,50,50V1054a50,50,0,0,1-50,50H794a50,50,0,0,1-50-50V761.254A50,50,0,0,1,794,711.254Z"/>
  <path id="rect3" class="cls-1" d="M449,53.254H731.834a50,50,0,0,1,50,50V396a50,50,0,0,1-50,50H449a50,50,0,0,1-50-50V103.254A50,50,0,0,1,449,53.254Zm0,0H731.834a50,50,0,0,1,50,50V396a50,50,0,0,1-50,50H449a50,50,0,0,1-50-50V103.254A50,50,0,0,1,449,53.254Z"/>
  <path id="line1" class="cls-2" d="M245.625,703.853l-0.643-.766L533.614,460.973l0.643,0.766Z"/>
  <path id="line2" class="cls-2" d="M935.018,703.087l-0.643.766L642.912,459.364l0.642-.766Z"/>
</svg>
