<?xml version="1.0" encoding="UTF-8" standalone="no"?>
<svg
   xmlns:dc="http://purl.org/dc/elements/1.1/"
   xmlns:cc="http://creativecommons.org/ns#"
   xmlns:rdf="http://www.w3.org/1999/02/22-rdf-syntax-ns#"
   xmlns:svg="http://www.w3.org/2000/svg"
   xmlns="http://www.w3.org/2000/svg"
   xmlns:sodipodi="http://sodipodi.sourceforge.net/DTD/sodipodi-0.dtd"
   xmlns:inkscape="http://www.inkscape.org/namespaces/inkscape"
   height="512pt"
   viewBox="0 0 512 512.00479"
   width="512pt"
   version="1.1"
   id="svg20"
   sodipodi:docname="wizard.svg"
   inkscape:version="0.92.4 (5da689c313, 2019-01-14)">
  <metadata
     id="metadata26">
    <rdf:RDF>
      <cc:Work
         rdf:about="">
        <dc:format>image/svg+xml</dc:format>
        <dc:type
           rdf:resource="http://purl.org/dc/dcmitype/StillImage" />
        <dc:title />
      </cc:Work>
    </rdf:RDF>
  </metadata>
  <defs
     id="defs24" />
  <sodipodi:namedview
     pagecolor="#ffffff"
     bordercolor="#666666"
     borderopacity="1"
     objecttolerance="10"
     gridtolerance="10"
     guidetolerance="10"
     inkscape:pageopacity="0"
     inkscape:pageshadow="2"
     inkscape:window-width="1920"
     inkscape:window-height="1017"
     id="namedview22"
     showgrid="false"
     inkscape:pagecheckerboard="true"
     inkscape:zoom="0.38065685"
     inkscape:cx="-598.38922"
     inkscape:cy="499.92428"
     inkscape:window-x="1912"
     inkscape:window-y="-8"
     inkscape:window-maximized="1"
     inkscape:current-layer="svg20" />
  <path
     d="m459.746094 330.570312-41.609375-10.070312v-158.363281c.085937-69.863281-44.648438-131.90625-110.960938-153.894531-66.316406-21.992188-139.253906 1.03125-180.929687 57.101562-5.113282-18.566406-22.054688-31.390625-41.3125-31.261719-19.261719.128907-36.03125 13.171875-40.894532 31.808594-4.863281 18.636719 3.394532 38.214844 20.132813 47.734375-2.894531 4.238281-4.441406 9.25-4.4375 14.378906v200.738282l-7.457031 1.828124c-30.691406 7.3125-52.3320315 34.765626-52.27343775 66.320313v98.046875c0 9.425781 7.64062475 17.066406 17.06640575 17.066406h477.867188c9.425781 0 17.066406-7.640625 17.066406-17.066406v-98.046875c.058594-31.546875-21.574218-59-52.257812-66.320313zm-203.742188-313.5c38.476563-.015624 75.386719 15.265626 102.59375 42.472657 27.207032 27.207031 42.488282 64.117187 42.472656 102.59375v154.234375l-32.554687-7.886719-1.109375-.273437c-3.6875-.898438-7.199219-2.410157-10.386719-4.46875 6.460938-16.625 9.820313-34.289063 9.917969-52.125v-84.058594c1.703125.808594 3.410156 1.703125 5.167969 2.421875 2.8125 1.253906 6.082031.894531 8.554687-.9375s3.769532-4.851563 3.390625-7.90625c-.378906-3.054688-2.375-5.667969-5.21875-6.839844-56.976562-24.421875-115.515625-99.046875-116.054687-99.796875-1.800782-2.265625-4.625-3.472656-7.507813-3.207031-2.886719.265625-5.441406 1.964843-6.800781 4.519531-.171875.324219-18.585938 33.066406-115.703125 81.621094-2.730469 1.363281-4.523437 4.078125-4.707031 7.121094-.183594 3.046874 1.269531 5.957031 3.8125 7.640624 2.546875 1.679688 5.792968 1.875 8.523437.511719 1.628907-.851562 3.128907-1.601562 4.71875-2.414062v101.324219c.09375 17.835937 3.453125 35.5 9.914063 52.125-3.1875 2.058593-6.699219 3.570312-10.386719 4.46875l-33.703125 8.125v-154.199219c.085938-80.078125 64.984375-144.976563 145.066406-145.066407zm68.265625 264.535157c-4.714843 0-8.535156 3.820312-8.535156 8.53125v63.550781l-44.242187 95.84375c-2.796876 6.035156-8.839844 9.898438-15.488282 9.898438-6.652344 0-12.695312-3.863282-15.488281-9.898438l-36.507813-79.085938c.515626-1.097656.785157-2.292968.792969-3.507812v-68.265625c0-4.714844-3.820312-8.535156-8.53125-8.535156-4.714843 0-8.535156 3.820312-8.535156 8.535156v36.523437l-13.8125-29.9375c-7.734375-16.824218-11.753906-35.121093-11.785156-53.640624v-38.277344h7.925781c9.058594-.023438 17.75 3.574218 24.140625 9.992187l25.601563 25.597657c19.992187 19.988281 52.402343 19.988281 72.394531 0l25.601562-25.597657c6.390625-6.421875 15.082031-10.019531 24.140625-9.992187h7.929688v38.277344c-.035156 18.519531-4.054688 36.816406-11.785156 53.640624l-5.285157 11.445313v-26.566406c0-4.710938-3.820312-8.53125-8.53125-8.53125zm-67.960937-207.976563c15.097656 18.015625 52.320312 59.496094 93.5625 84.667969v37.972656h-7.929688c-10.890625-.007812-21.496094 3.484375-30.25 9.960938-.246094-.152344-.410156-.394531-.675781-.53125-54.398437-27.203125-107.785156-1.125-110.027344 0-.265625.136719-.425781.378906-.675781.53125-8.753906-6.476563-19.359375-9.96875-30.25-9.960938h-7.925781v-54.902343c57.171875-30.890626 83.191406-54.972657 94.171875-67.738282zm41.96875 145.066406-18.140625 18.144532c-13.515625 12.871094-34.753907 12.871094-48.265625 0l-18.066406-18.039063c27.144531-10.664062 57.308593-10.691406 84.472656-.078125zm-212.941406-167.492187c14.136718 0 25.601562 11.464844 25.601562 25.601563 0 14.136718-11.464844 25.601562-25.601562 25.601562-14.136719 0-25.601563-11.464844-25.601563-25.601562 0-14.136719 11.464844-25.601563 25.601563-25.601563zm-68.265626 345.6875c-.035156-23.675781 16.214844-44.265625 39.253907-49.734375l3.410156-.851562v148.632812h-42.664063zm59.730469 98.046875v-366.933594c0-4.710937 3.820313-8.53125 8.535157-8.53125 4.710937 0 8.535156 3.820313 8.535156 8.53125v366.933594zm418.136719 0h-85.335938v-51.199219c0-4.714843-3.820312-8.535156-8.53125-8.535156-4.714843 0-8.535156 3.820313-8.535156 8.535156v51.199219h-281.597656v-161.050781l37.664062-9.085938c4.59375-1.132812 9.007813-2.894531 13.117188-5.238281l63.289062 137.121094c5.582032 12.089844 17.679688 19.832031 30.996094 19.832031 13.3125 0 25.414063-7.742187 30.992188-19.832031l42.238281-91.527344c2.207031-1.546875 3.53125-4.058594 3.566406-6.75v-.964844l17.488281-37.878906c4.078126 2.332031 8.464844 4.089844 13.027344 5.222656l73.644532 17.824219c-12.222657 10.074219-21.472657 23.289063-26.753907 38.222656-1.75 4.375.375 9.347657 4.753907 11.101563 4.378906 1.75 9.347656-.375 11.101562-4.753906 14.277344-35.703126 33.765625-37.25 34.902344-37.308594.597656-.0625 1.1875-.191406 1.757812-.382813 19.453125 7.683594 32.230469 26.484375 32.214844 47.402344zm0 0"
     id="path2"
     style="fill:#000000" />
  <path
     d="m213.335938 170.671875c4.710937 0 8.535156-3.820313 8.535156-8.535156v-17.066407c0-4.710937-3.824219-8.53125-8.535156-8.53125-4.714844 0-8.535157 3.820313-8.535157 8.53125v17.066407c0 4.714843 3.820313 8.535156 8.535157 8.535156zm0 0"
     id="path4"
     style="fill:#000000" />
  <path
     d="m298.667969 170.671875c4.714843 0 8.535156-3.820313 8.535156-8.535156v-17.066407c0-4.710937-3.820313-8.53125-8.535156-8.53125-4.710938 0-8.53125 3.820313-8.53125 8.53125v17.066407c0 4.714843 3.820312 8.535156 8.53125 8.535156zm0 0"
     id="path6"
     style="fill:#000000" />
  <path
     d="m42.667969 42.671875c4.714843 0 8.535156-3.820313 8.535156-8.535156v-8.53125c0-4.714844-3.820313-8.535157-8.535156-8.535157-4.710938 0-8.53125 3.820313-8.53125 8.535157v8.53125c0 4.714843 3.820312 8.535156 8.53125 8.535156zm0 0"
     id="path8"
     style="fill:#000000" />
  <path
     d="m8.535156 59.738281h8.535156c4.710938 0 8.53125-3.820312 8.53125-8.535156 0-4.710937-3.820312-8.53125-8.53125-8.53125h-8.535156c-4.710937 0-8.53124975 3.820313-8.53124975 8.53125 0 4.714844 3.82031275 8.535156 8.53124975 8.535156zm0 0"
     id="path10"
     style="fill:#000000" />
  <path
     d="m42.667969 136.539062c4.714843 0 8.535156-3.820312 8.535156-8.535156v-8.53125c0-4.714844-3.820313-8.535156-8.535156-8.535156-4.710938 0-8.53125 3.820312-8.53125 8.535156v8.53125c0 4.714844 3.820312 8.535156 8.53125 8.535156zm0 0"
     id="path12"
     style="fill:#000000" />
  <path
     d="m8.535156 110.9375h8.535156c4.710938 0 8.53125-3.820312 8.53125-8.53125 0-4.714844-3.820312-8.535156-8.53125-8.535156h-8.535156c-4.710937 0-8.53124975 3.820312-8.53124975 8.535156 0 4.710938 3.82031275 8.53125 8.53124975 8.53125zm0 0"
     id="path14"
     style="fill:#000000" />
  <path
     d="m256.003906 307.203125c-4.714844 0-8.535156 3.820313-8.535156 8.535156v76.800781c0 4.710938 3.820312 8.53125 8.535156 8.53125 4.710938 0 8.53125-3.820312 8.53125-8.53125v-76.800781c0-4.714843-3.820312-8.535156-8.53125-8.535156zm0 0"
     id="path16"
     style="fill:#000000" />
  <path
     d="m93.871094 76.804688c0 4.714843-3.824219 8.535156-8.535156 8.535156-4.714844 0-8.535157-3.820313-8.535157-8.535156 0-4.710938 3.820313-8.535157 8.535157-8.535157 4.710937 0 8.535156 3.824219 8.535156 8.535157zm0 0"
     id="path18"
     style="fill:#000000" />
</svg>
