<?xml version="1.0" encoding="UTF-8" standalone="no"?>
<!-- Generator: Adobe Illustrator 16.0.0, SVG Export Plug-In . SVG Version: 6.00 Build 0)  -->

<svg
   xmlns:dc="http://purl.org/dc/elements/1.1/"
   xmlns:cc="http://creativecommons.org/ns#"
   xmlns:rdf="http://www.w3.org/1999/02/22-rdf-syntax-ns#"
   xmlns:svg="http://www.w3.org/2000/svg"
   xmlns="http://www.w3.org/2000/svg"
   xmlns:sodipodi="http://sodipodi.sourceforge.net/DTD/sodipodi-0.dtd"
   xmlns:inkscape="http://www.inkscape.org/namespaces/inkscape"
   version="1.1"
   id="Capa_1"
   x="0px"
   y="0px"
   width="510px"
   height="510px"
   viewBox="0 0 510 510"
   style="enable-background:new 0 0 510 510;"
   xml:space="preserve"
   sodipodi:docname="live.svg"
   inkscape:version="0.92.4 (5da689c313, 2019-01-14)"><metadata
   id="metadata4788"><rdf:RDF><cc:Work
       rdf:about=""><dc:format>image/svg+xml</dc:format><dc:type
         rdf:resource="http://purl.org/dc/dcmitype/StillImage" /><dc:title></dc:title></cc:Work></rdf:RDF></metadata><defs
   id="defs4786" /><sodipodi:namedview
   pagecolor="#ffffff"
   bordercolor="#666666"
   borderopacity="1"
   objecttolerance="10"
   gridtolerance="10"
   guidetolerance="10"
   inkscape:pageopacity="0"
   inkscape:pageshadow="2"
   inkscape:window-width="1920"
   inkscape:window-height="1001"
   id="namedview4784"
   showgrid="false"
   inkscape:pagecheckerboard="true"
   inkscape:zoom="0.4627451"
   inkscape:cx="-159.91525"
   inkscape:cy="255"
   inkscape:window-x="-9"
   inkscape:window-y="-9"
   inkscape:window-maximized="1"
   inkscape:current-layer="Capa_1" />
<g
   id="g4751"
   style="fill:#00aa21;fill-opacity:1">
	<g
   id="wifi-tethering"
   style="fill:#00aa21;fill-opacity:1">
		<path
   d="M255,221.85c-28.05,0-51,22.95-51,51s22.95,51,51,51s51-22.95,51-51S283.05,221.85,255,221.85z M408,272.85    c0-84.15-68.85-153-153-153c-84.15,0-153,68.85-153,153c0,56.1,30.6,104.55,76.5,132.6L204,362.1c-30.6-17.85-51-51-51-86.7    c0-56.1,45.9-102,102-102c56.1,0,102,45.9,102,102c0,38.25-20.4,71.4-51,86.7l25.5,43.35C377.4,377.4,408,328.95,408,272.85z     M255,17.85c-140.25,0-255,114.75-255,255c0,94.35,51,175.95,127.5,219.3L153,448.8c-61.2-35.7-102-102-102-175.95    c0-112.2,91.8-204,204-204s204,91.8,204,204c0,76.5-40.8,140.25-102,175.95l25.5,43.35C459,448.8,510,364.65,510,272.85    C510,132.6,395.25,17.85,255,17.85z"
   id="path4748"
   style="fill:#00aa21;fill-opacity:1" />
	</g>
</g>
<g
   id="g4753">
</g>
<g
   id="g4755">
</g>
<g
   id="g4757">
</g>
<g
   id="g4759">
</g>
<g
   id="g4761">
</g>
<g
   id="g4763">
</g>
<g
   id="g4765">
</g>
<g
   id="g4767">
</g>
<g
   id="g4769">
</g>
<g
   id="g4771">
</g>
<g
   id="g4773">
</g>
<g
   id="g4775">
</g>
<g
   id="g4777">
</g>
<g
   id="g4779">
</g>
<g
   id="g4781">
</g>
</svg>