<?xml version="1.0" encoding="UTF-8" standalone="no"?>
<!-- Generator: Adobe Illustrator 17.1.0, SVG Export Plug-In . SVG Version: 6.00 Build 0)  -->

<svg
   xmlns:dc="http://purl.org/dc/elements/1.1/"
   xmlns:cc="http://creativecommons.org/ns#"
   xmlns:rdf="http://www.w3.org/1999/02/22-rdf-syntax-ns#"
   xmlns:svg="http://www.w3.org/2000/svg"
   xmlns="http://www.w3.org/2000/svg"
   xmlns:sodipodi="http://sodipodi.sourceforge.net/DTD/sodipodi-0.dtd"
   xmlns:inkscape="http://www.inkscape.org/namespaces/inkscape"
   version="1.1"
   id="Capa_1"
   x="0px"
   y="0px"
   viewBox="0 0 276.157 276.157"
   style="enable-background:new 0 0 276.157 276.157;"
   xml:space="preserve"
   sodipodi:docname="open-archive.svg"
   inkscape:version="0.92.4 (5da689c313, 2019-01-14)"><metadata
   id="metadata39"><rdf:RDF><cc:Work
       rdf:about=""><dc:format>image/svg+xml</dc:format><dc:type
         rdf:resource="http://purl.org/dc/dcmitype/StillImage" /><dc:title /></cc:Work></rdf:RDF></metadata><defs
   id="defs37" /><sodipodi:namedview
   pagecolor="#ffffff"
   bordercolor="#666666"
   borderopacity="1"
   objecttolerance="10"
   gridtolerance="10"
   guidetolerance="10"
   inkscape:pageopacity="0"
   inkscape:pageshadow="2"
   inkscape:window-width="1920"
   inkscape:window-height="1017"
   id="namedview35"
   showgrid="false"
   inkscape:pagecheckerboard="true"
   inkscape:zoom="0.8545863"
   inkscape:cx="-60.848152"
   inkscape:cy="138.07851"
   inkscape:window-x="3832"
   inkscape:window-y="411"
   inkscape:window-maximized="1"
   inkscape:current-layer="Capa_1" />
<path
   style="fill:#ffffff;stroke-width:0.96012801"
   d="M 83.802854,21.086313 C 71.214728,22.438635 56.396359,18.139274 45.54589,26.961294 39.104247,31.440475 35.919449,39.060481 32.940983,45.776551 26.129447,48.352636 17.861724,44.728963 11.643621,49.678256 0.67681397,55.667379 -1.7231466,69.518958 -0.15397774,80.830207 0.214949,132.47577 -0.98286013,184.17907 0.48965251,235.78842 2.8685396,248.23489 16.51486,255.91437 28.665304,253.56297 c 59.95291,0.32026 119.955476,0.1734 179.878706,0.0373 15.76564,-1.84852 28.35051,-15.26405 31.19411,-30.44816 12.40906,-36.42233 26.47779,-72.37263 37.75273,-109.148 1.67285,-13.51915 -11.47505,-25.994179 -24.9614,-24.398729 -5.30967,-0.507667 -11.94722,0.937931 -16.35929,-0.469026 0.17523,-12.097557 2.81244,-27.035414 -7.2735,-36.245859 -10.82541,-9.833218 -26.57939,-5.479149 -39.72483,-6.345348 -20.35593,-0.10239 -40.88954,0.794197 -61.10501,-0.647074 C 119.33045,40.801324 116.57464,29.133303 106.62454,25.44957 99.69262,21.670488 91.568495,20.965587 83.802854,21.086313 Z M 66.146952,46.959395 c 9.399228,1.397103 19.449875,-1.933407 28.412792,1.603286 7.646486,6.094543 11.181206,16.763001 21.086586,20.201782 15.11947,6.898253 32.05753,2.368512 47.99952,3.759459 15.56671,0.06252 31.18705,-0.625849 46.67277,0.351533 0.26712,5.557245 0.0813,11.58015 -0.19571,16.87188 -21.58855,-0.598359 -43.21377,0.327922 -64.82917,-0.122204 -26.53598,0.08346 -53.156749,-0.516899 -79.637961,0.778093 -15.080662,3.207211 -25.44686,17.145256 -28.317526,31.603206 -3.818747,10.83028 -7.637496,21.6606 -11.456243,32.49088 -0.02048,-27.32988 -0.225593,-54.661691 0.173134,-81.989976 8.950658,0.464644 18.619907,-0.993239 25.055499,-7.797802 5.1345,-4.57137 7.417757,-11.445041 10.421912,-17.142833 1.41371,-0.668194 3.081048,-0.817462 4.614397,-0.607304 z m 10.589401,68.266735 c 57.834727,0.55788 115.672447,0.0986 173.508477,0.23918 -9.18995,24.89386 -17.58673,50.08293 -26.48489,75.08927 -4.35849,11.62927 -7.98662,23.81482 -13.35663,34.88723 -8.20274,5.409 -18.29243,1.07288 -27.42291,2.43479 -51.73127,-0.0609 -103.463203,0.20133 -155.193916,-0.13638 12.924599,-36.59005 25.02099,-73.62518 39.211082,-109.67002 2.507734,-2.49239 6.380605,-2.79974 9.738787,-2.84407 z"
   id="path2"
   inkscape:connector-curvature="0" />
<g
   id="g4">
</g>
<g
   id="g6">
</g>
<g
   id="g8">
</g>
<g
   id="g10">
</g>
<g
   id="g12">
</g>
<g
   id="g14">
</g>
<g
   id="g16">
</g>
<g
   id="g18">
</g>
<g
   id="g20">
</g>
<g
   id="g22">
</g>
<g
   id="g24">
</g>
<g
   id="g26">
</g>
<g
   id="g28">
</g>
<g
   id="g30">
</g>
<g
   id="g32">
</g>
</svg>