<?xml version="1.0" encoding="UTF-8" standalone="no"?>
<svg
        xmlns:dc="http://purl.org/dc/elements/1.1/"
        xmlns:cc="http://creativecommons.org/ns#"
        xmlns:rdf="http://www.w3.org/1999/02/22-rdf-syntax-ns#"
        xmlns:svg="http://www.w3.org/2000/svg"
        xmlns="http://www.w3.org/2000/svg"
        xmlns:sodipodi="http://sodipodi.sourceforge.net/DTD/sodipodi-0.dtd"
        xmlns:inkscape="http://www.inkscape.org/namespaces/inkscape"
        height="512pt"
        viewBox="-24 0 512 512.00007"
        width="512pt"
        version="1.1"
        id="svg6"
        sodipodi:docname="wizard-hat.svg"
        inkscape:version="1.0.1 (3bc2e813f5, 2020-09-07)">
  <path
          d="m464.996094 364.253906c0-35.117187-64.605469-52.75-108.136719-60.644531-1.691406-9.382813-5.949219-24.539063-13.289063-50.351563-11.160156-39.238281-26.441406-92.976562-40.070312-156.96875-3.175781-14.917968-1.3125-27.152343 5.695312-37.402343 16.613282-24.296875 57.871094-31.015625 73.402344-33.542969 2.195313-.359375 3.925782-.640625 5.257813-.914062 8.566406-1.746094 9.617187-7.628907 9.667969-10.078126.082031-3.882812-2.183594-8.90625-8.84375-10.289062-.375-.078125-.753907-.132812-1.136719-.167969l-.339844-.03125c-43.789063-3.8710935-85.152344-7.527343-120.425781 3.296875-40.132813 12.316406-67.453125 41.386719-85.976563 91.484375l-76.019531 205.589844c-41.726562 7.863281-104.78125 25.472656-104.78125 60.019531 0 31.144532 51.125 48.53125 92.378906 57.488282l-14.40625 12.039062c-2.625 2.195312-3.925781 5.59375-3.441406 8.980469s2.6875 6.28125 5.820312 7.652343l38.167969 16.691407 15.527344 38.695312c1.277344 3.179688 4.105469 5.46875 7.480469 6.054688.566406.097656 1.128906.144531 1.691406.144531 2.796875 0 5.5-1.191406 7.390625-3.328125l27.632813-31.183594 41.550781-2.804687c3.417969-.234375 6.46875-2.214844 8.066406-5.238282 1.601563-3.027343 1.523437-6.664062-.207031-9.617187l-7.351563-12.535156 197.363281-24.628907c7.398438-.90625 14.011719-4.710937 18.609376-10.710937 3.363281-4.378906 5.359374-9.671875 5.804687-15.121094 15.195313-9.605469 22.917969-20.546875 22.917969-32.578125zm-265.664063-258.753906c16.210938-43.84375 39.484375-69.089844 73.242188-79.449219 16.945312-5.203125 35.632812-6.652343 56.070312-6.285156-13.734375 6.199219-26.949219 15.085937-35.757812 27.96875-10.082031 14.746094-13.015625 32.464844-8.710938 52.671875 10.96875 51.511719 22.96875 96.324219 33.074219 132.398438-6.75 3.113281-21.039062 7.257812-46.289062 9.765624-5.429688.539063-9.394532 5.378907-8.855469 10.808594.507812 5.097656 4.804687 8.902344 9.820312 8.902344.328125 0 .65625-.015625.988281-.050781 16.265626-1.617188 35.925782-4.644531 49.742188-10.285157.648438 2.28125 1.289062 4.527344 1.910156 6.722657 6.996094 24.597656 13.605469 47.828125 13.402344 52.707031-.5625 7.960938-16.0625 19.042969-57.90625 24.066406-31.742188 3.808594-70.742188 3.105469-104.320312-1.882812-39.480469-5.867188-51.863282-14.785156-53.839844-17.734375.199218-.640625.335937-1.308594.402344-1.992188l23.804687-64.386719c12.734375 6.3125 30.515625 10.648438 53.121094 12.925782.339843.035156.671875.050781 1.003906.050781 5.007813 0 9.304687-3.796875 9.816406-8.890625.546875-5.425781-3.410156-10.273438-8.835937-10.816406-21.203125-2.136719-37.925782-6.308594-48.203125-11.9375zm-26.460937 352.550781c-2.589844.175781-5.007813 1.363281-6.730469 3.304688l-19.710937 22.246093-11.082032-27.605468c-.964844-2.402344-2.832031-4.332032-5.207031-5.371094l-27.25-11.914062 22.828125-19.082032c1.988281-1.660156 3.246094-4.039062 3.5-6.617187l2.890625-29.617188 25.175781 15.824219c2.199219 1.378906 4.851563 1.84375 7.382813 1.285156l29.007812-6.390625-7.257812 28.851563c-.632813 2.515625-.253907 5.175781 1.054687 7.410156l15.054688 25.671875zm247.726562-58.117187c-1.347656 1.757812-3.242187 2.867187-5.359375 3.125l-205.816406 25.683594-2.859375-4.875.792969-3.148438 205.511719-34.710938c2.058593-.34375 4.171874.183594 5.949218 1.488282 1.855469 1.355468 3.113282 3.402344 3.488282 5.628906.011718.082031.023437.167969.042968.25.3125 2.304688-.320312 4.695312-1.75 6.558594zm15.488282-22.945313c-1.601563-2.046875-3.480469-3.886719-5.601563-5.4375-6.117187-4.476562-13.535156-6.261719-20.898437-5.027343l-196.964844 33.265624 4.113281-16.351562c.835937-3.320312-.105469-6.835938-2.492187-9.292969-2.382813-2.457031-5.871094-3.503906-9.210938-2.765625l-40.660156 8.957032-35.28125-22.175782c-2.898438-1.824218-6.535156-2.015625-9.609375-.507812-3.074219 1.507812-5.148438 4.5-5.480469 7.910156l-3.867188 39.59375c-66.160156-12.195312-90.375-30.972656-90.375-40.902344 0-6.109375 8.460938-13.902344 22.628907-20.847656 15.082031-7.394531 36.28125-13.875 61.722656-18.914062 1.066406 2.058593 2.585937 4.171874 4.703125 6.28125 19.472656 19.382812 79.808594 24.695312 97.835938 25.859374 10.316406.667969 20.480468.996094 30.351562.996094 35.695312 0 67.542969-4.273437 88.59375-12.167968 14.902344-5.585938 24.679688-13.007813 29.214844-22.144532 66.140625 12.175782 90.429687 30.917969 90.429687 40.9375 0 3.789063-3.253906 8.234375-9.152343 12.734375zm0 0"
          id="path2"
          style="fill:#163150" />
  <path
          d="m238.230469 262.726562h.199219c5.453124 0 9.875-4.425781 9.875-9.878906 0-5.457031-4.421876-9.878906-9.875-9.878906h-.199219c-5.453125 0-9.875 4.421875-9.875 9.878906 0 5.453125 4.417969 9.878906 9.875 9.878906zm0 0"
          id="path4"
          style="fill:#163150" />
</svg>
